<?xml version="1.0" encoding="utf-8"?>
<!-- Generator: Adobe Illustrator 22.0.1, SVG Export Plug-In . SVG Version: 6.00 Build 0)  -->
<svg version="1.1" id="Layer_1" xmlns="http://www.w3.org/2000/svg" xmlns:xlink="http://www.w3.org/1999/xlink" x="0px" y="0px"
	 viewBox="0 0 679.5 879.3" style="enable-background:new 0 0 679.5 879.3;" xml:space="preserve">
<style type="text/css">
	.st0{fill:#EF3D32;}
	.st1{fill:#FFFFFF;}
	.st2{fill:#AA1F23;}
	.st3{font-family:'InfiniteJustice';}
	.st4{font-size:96.2px;}
	.st5{font-size:29px;}
</style>
<title>Von Lee v4.0 - On White BG</title>
<path class="st0" d="M68.4,309.3l106-3.3v-54c0,0,154-177.3,344,0v54.7l92.7,2.7l-82-12v-56.1c0,0-167.3-196.6-368.7,2.7v53.3
	L68.4,309.3z"/>
<path class="st0" d="M118.7,468.6h97c0,0,58.5,121.5,128,142c0,0,69-12.5,132-142h93l-87,11.5c0,0-48.2,117-133.4,144
	c0,0-73.6-13-139.6-141L118.7,468.6z"/>
<polygon class="st1" points="346.7,400 394.9,378.6 408.9,414 357.7,414.1 "/>
<path d="M413.4,414h-8.1c-0.6-1.5-2-2.1-3.1-3c-0.6-0.5-1.4-0.5-2,0c-1.3,0.7-2.5,1.7-3.3,3c-0.4,0-0.8,0.1-1.3,0.1h-15.6
	c-0.5,0-1,0-1.4-0.1c-0.3-0.4-0.1-0.7,0.2-0.9c0.7-0.3,1.4-0.6,2.1-0.9c0.5-0.1,1-0.2,1.6-0.3c0.5-0.1,1-0.2,1.4-0.4
	c1.6-0.6,3.2-1.3,4.8-2c0.5-0.2,0.9-0.5,1.4-0.8c2.4-1.3,4.7-2.9,6.7-4.7c0.4-0.3,0.8-0.7,1.2-1.1c1-0.9,1.4-2.3,0.8-3.5
	c-0.6-1.3-1-2.6-1.3-4c0-0.2-0.1-0.3-0.2-0.5c-0.5-0.7-0.8-1.6-0.9-2.5c-0.1-0.3-0.2-0.7-0.3-1c-0.2-0.7-0.4-1.4-0.6-2
	s-0.4-1.1-0.6-1.6c-0.6-1.3-1.1-2.7-1.3-4.2c0-0.4-0.1-0.8-0.3-1.1c-0.2-0.6-0.9-0.8-1.4-0.6c-0.2,0.1-0.3,0.2-0.5,0.3
	c-0.2,0.3-0.5,0.6-0.7,0.8c-0.5,0.5-1.1,1.1-1.6,1.5s-1.3,1-2,1.6c-0.2,0.2-0.5,0.4-0.8,0.5c-1.2,0.7-2.4,1.4-3.5,2.2
	c-0.5,0.3-1.1,0.6-1.6,0.9c-1.5,0.9-3.1,1.7-4.7,2.5c-0.1,0.1-0.2,0.1-0.4,0.1c-1.8,0.5-3.5,1.3-5.1,2.2c-1.4,0.7-2.8,1.3-4.2,1.9
	s-2.7,1-4,1.6c-1.9,0.9-3.9,1.6-5.9,2.1c-0.9,0.3-1.9,0.4-2.9,0.6c-0.4,0.1-0.8,0.1-1.2,0.2c-0.3,0.1-0.5,0.2-0.7,0.3
	c-0.4,0.1-0.6,0.5-0.6,0.8c0.1,0.3,0.3,0.6,0.6,0.7c0.3,0.1,0.7,0.2,1,0.3c1.1,0.2,2.1,0.2,3.2,0.3c1.7,0,3.5,0.3,5.1,0.9
	c1.4,0.5,2.4,1.7,2.7,3.2c0,0.1,0,0.3,0,0.4c-0.4,1.5-0.6,3-1.9,4c-0.4,0.3-0.7,0.5-1,0.9c-0.3,0.3-0.6,0.7-0.9,1.1
	c-0.4,0-0.9,0.1-1.4,0.1h-65.8c-0.4,0-0.9,0-1.3-0.1c-0.3-0.5-0.3-1.2-0.1-1.8c0.2-1.1,0.4-2.3,0.7-3.4c0.3-1.4,0.7-2.8,1.1-4.2
	c0.1-0.4,0.3-0.8,0.5-1.2c0.4-0.7,0.7-1.5,1.1-2.1c0.7-1.4,1.1-3,1.2-4.6c0.1-0.8,0.3-1.5,0.4-2.2c0.1-0.6,0.2-1.2,0.2-1.9
	c0.1-3.4,0.2-6.8,0.3-10.1c0-0.6,0.1-1.2,0.2-1.9c0.2-1.5,0-3-0.5-4.5c-1-2.9-1.3-5.9-0.7-8.9c0.1-1.4,0.4-2.7,0.6-4.1
	c0.1-0.6,0.1-1.1,0.1-1.7c0.1-1.6,0.2-3.2,0.3-4.8c0-0.7,0.2-1.3,0.6-1.9c0.4-0.7,0.7-1.5,0.7-2.3c0-0.4,0.1-0.7,0.1-1.1
	c0.5-2.3,0.7-4.6,0.6-7c0-2.8,0-5.5,0.1-8.3c0-1,0-2,0-2.9c0-0.7-0.3-1.4-0.7-2c-0.5-0.6-0.9-1.4-1.3-2c-0.3-0.5-0.6-0.9-1-1.2
	c-0.6-0.5-1-1.1-1.2-1.9c-0.2-0.9-0.6-1.7-1.1-2.4c-0.1-0.1-0.2-0.3-0.3-0.5c-0.8-2.5-1.9-5-2-7.7c0-0.4,0-0.7-0.1-1
	c-0.3-1.4-0.4-2.8-0.5-4.2c-0.1-1.1-0.4-2.2-0.7-3.3c0-0.2-0.1-0.4-0.2-0.6c-0.7-1.1-1.3-2.3-1.9-3.5c-0.8-1.3-1.4-2.8-2-4.2
	c-0.1-0.2-0.1-0.3-0.2-0.5c-0.3-0.7-1.1-0.9-1.8-0.6c-0.3,0.1-0.5,0.3-0.6,0.6c-0.3,0.5-0.6,1.1-0.9,1.6c-1.2,2.1-2.3,4.2-3.5,6.3
	c-0.2,0.4-0.4,0.7-0.7,1c-1.2,1.3-2.4,2.5-3.6,3.8c-0.5,0.5-1,1-1.5,1.5l-1.6,1.5c-0.1,0.2-0.3,0.3-0.5,0.5c-0.9,0.7-1.9,1.3-2.8,2
	c-0.8,0.6-1.6,1.1-2.5,1.6c-0.3,0.1-0.5,0.3-0.6,0.5c-0.4,0.5-1,1-1.7,1.2c-1,0.6-2,1.3-2.9,2.1c-0.4,0.4-0.8,0.7-1.3,0.8
	c-0.6,0.2-1.1,0.5-1.5,0.9c-0.4,0.5-1,0.8-1.5,1c-0.2,0.1-0.3,0.1-0.5,0.3c-0.6,0.6-1.3,1.1-2.1,1.3c-0.3,0.1-0.6,0.4-0.8,0.6
	c-0.4,0.5-0.9,0.8-1.4,0.9c-0.6,0.1-1.2,0.5-1.6,0.9c-0.3,0.3-0.7,0.5-1.2,0.5c-1.3,0.2-2.6,0.6-3.8,1.2c-0.9,0.4-1.9,0.6-2.8,0.6
	c-0.6,0-1.2,0-1.9,0c-2.5,0-5.1,0-7.6,0c-1-0.1-2-0.2-3-0.3c-0.2,0-0.4-0.1-0.6-0.2c-1.4-0.7-2.8-1.1-4.3-1.3
	c-0.5-0.1-0.9-0.3-1.3-0.6c-0.4-0.4-0.9-0.7-1.5-0.7c-0.6-0.1-1.2-0.4-1.6-0.9c-0.3-0.3-0.7-0.6-1.1-0.7c-0.5-0.2-1-0.5-1.3-0.9
	c-0.3-0.3-0.7-0.6-1.1-1c-0.1-0.1-0.3-0.2-0.4-0.4c-0.7-1-1.3-2.1-1.7-3.3c-0.1-0.6-0.3-1.1-0.6-1.6c-0.4-0.8-0.7-1.8-0.7-2.7
	c0-0.7-0.3-1.4-0.6-2c-0.3-0.6-0.6-1.3-0.6-2c-0.3-2.2-0.5-4.5-0.4-6.8c0-4.7,0-9.4,0-14.1c0-3.2,0.2-6.4,0-9.6
	c0-1.1,0.2-2.2,0.6-3.2c0.2-0.4,0.3-0.7,0.4-1.1c0.5-1.9,1.2-3.7,2.1-5.5c0.7-1.5,1.7-2.9,2.8-4.2c1.2-1.5,2.4-3,3.6-4.4
	c0.9-1.1,1.9-2.2,3-3.2c0.6-0.6,1.2-1.2,1.7-1.9c0.8-1,1.7-1.9,2.7-2.7c0.6-0.6,1.1-1.1,1.7-1.7c0.1-0.1,0.2-0.3,0.4-0.4
	c1-0.5,1.5-1.5,2.2-2.3c0.1-0.1,0.2-0.3,0.3-0.4c0.5-0.9,1-1.9,1.4-2.9c0.2-0.5,0.3-1,0.4-1.5c0.1-0.9,0.4-1.8,0.7-2.7
	c0.3-0.6,0.5-1.3,0.6-2c0.1-0.7,0.3-1.3,0.6-1.9c0.3-0.5,0.5-1.1,0.5-1.6c0.1-0.8,0.3-1.6,0.7-2.3c0.1-0.2,0.2-0.4,0.3-0.6
	c0.4-1.3,1-2.6,1.7-3.7c0.6-1.1,1-2.2,1.5-3.3c0.1-0.2,0.2-0.5,0.4-0.7c0.9-1.3,1.7-2.7,2.4-4.2c0.4-0.9,1-1.7,1.7-2.3
	c0.4-0.3,0.7-0.8,0.9-1.3c0.1-0.3,0.2-0.6,0.4-0.8c0.8-1.1,1.6-2.1,2.4-3.1c0.7-0.8,1.6-1.5,2.4-2.3s1.3-1.4,2-2.2
	c0.4-0.5,0.8-0.9,1.4-1.2c0.2-0.1,0.4-0.3,0.6-0.5c0.8-1,1.8-1.8,2.9-2.2c0.7-0.4,1.4-0.8,2-1.3c0.1-0.1,0.2-0.2,0.3-0.3
	c1.4-0.4,2.3-1.4,3.6-1.9c1-0.3,2-0.8,2.8-1.4c0.4-0.3,0.9-0.5,1.4-0.5c0.4,0,0.8-0.1,1.2-0.1c0.8-0.1,1.5-0.3,2.1-0.7
	c0.5-0.3,1-0.5,1.6-0.6c2.9-0.5,5.8-0.7,8.7-1c0.4,0,0.7,0,1.1,0c2.2,0.1,4.4,0.3,6.6,0.7c0.4,0.1,0.8,0.1,1.2,0.1
	c0.8,0,1.6,0.2,2.2,0.7c0.5,0.4,1,0.6,1.6,0.7c1.1,0.3,2.2-0.1,2.9-0.9c0.8-0.9,1.5-1.9,2.3-2.8c0.2-0.3,0.4-0.5,0.6-0.7
	c0.4-0.5,0.9-1,1.3-1.6c0.4-0.5,0.9-0.9,1.4-1.3c0.9-0.6,1.8-1.3,2.6-2.1c0.5-0.4,1-0.9,1.6-1.2c0.6-0.4,1.3-0.8,1.9-1.3
	c0.2-0.1,0.3-0.2,0.4-0.3c0.6-1,1.5-1.7,2.2-2.7c0.7-1.1,1.1-2.5,1.1-3.8c0-0.4-0.1-0.8-0.3-1.1c-0.4-0.6-0.7-1.4-0.7-2.1
	c0-0.5-0.2-1.1-0.5-1.5c-0.5-0.6-0.7-1.3-0.7-2c0-0.7-0.2-1.4-0.6-2c-0.4-0.7-0.7-1.5-0.6-2.3c0-2.4-0.1-4.8-0.1-7.2
	c0-1,0.3-2,0.8-2.8c0.1-0.1,0.1-0.2,0.2-0.4c0.6-2.1,2.1-3.7,3.3-5.4c0.7-0.9,1-2,1-3.1c0-0.5-0.1-1-0.1-1.5c0-1.2-0.4-2.3-1.1-3.2
	c-0.6-0.8-1.1-1.6-1.4-2.6c-0.7-2-0.6-4.1,0.2-6c0.2-0.6,0.6-1.2,1-1.7c0.8-1,1.3-2.2,1.4-3.5c0.1-1.3,0.3-2.6,0.5-3.8
	c0.1-0.4,0.2-0.8,0.3-1.1c0.2-0.6,0.4-1.2,0.5-1.8c0.2-0.9,0.4-1.8,0.8-2.7c0.5-1,0.9-2,1.3-3.1c0.6-1.5,1.4-2.9,2.4-4.1
	c0.3-0.3,0.5-0.6,0.7-1c0.3-0.8,0.9-1.5,1.6-2.1c0.5-0.4,0.9-1,1.4-1.4c1-0.9,2-1.8,3-2.6c0.9-0.7,2-1.4,3-1.9
	c0.8-0.3,1.5-0.7,2.1-1.4c0.2-0.3,0.7-0.5,1.1-0.5c1.3,0,2.6-0.4,3.6-1.3c0.6-0.4,1.3-0.6,2-0.5c0.7,0,1.3,0,2-0.1
	c1.1-0.2,2.1-0.3,3.2-0.3c2.3,0,4.6,0.1,6.9,0.2c0.8,0,1.5,0.1,2.3,0.1c1.1-0.1,2.2,0.3,3.1,1c0.5,0.4,1.2,0.7,1.8,0.7
	c0.4,0,0.7,0,1.1,0.1c0.5,0.1,0.9,0.3,1.3,0.7c0.5,0.6,1.2,0.9,2,1c0.6,0.1,1.1,0.4,1.4,0.9c0.2,0.3,0.4,0.5,0.7,0.6
	c0.6,0.3,1.2,0.7,1.6,1.3c0.6,0.6,1.4,1.2,2,1.7c0.2,0.1,0.4,0.3,0.6,0.5c1.1,1.2,2.1,2.5,3.2,3.8c0.2,0.3,0.4,0.6,0.6,0.9
	c0.6,0.9,1.1,1.9,1.7,2.9c0,0,0,0.1,0.1,0.1c0.5,1.8,1.7,3.4,1.8,5.4c0.1,0.7,0.3,1.4,0.7,2c0.3,0.5,0.5,1,0.6,1.6
	c0.2,1,0.3,2.1,0.4,3.2c0,1.6,0.7,3.2,1.9,4.3c0.7,0.7,1.2,1.5,1.5,2.3c0.2,0.5,0.3,1,0.4,1.6c0.1,0.6,0.1,1.2,0.1,1.9
	c0,1-0.3,2-0.9,2.7l-1.5,2c-0.5,0.6-0.7,1.5-0.6,2.3c0.2,1.4,0.5,2.7,0.9,4c0.2,0.8,0.6,1.6,1.1,2.3c0.3,0.4,0.5,0.9,0.5,1.4
	c-0.1,1.7,0.4,3.5,1.4,4.9c0.5,0.8,0.7,1.7,0.7,2.7c0,1,0.1,2,0.2,3.1c0,0.8,0.1,1.5,0.1,2.3c0,0.5-0.2,1-0.7,1.2
	c-1,0.5-1.5,1.5-1.5,2.6c-0.1,0.8-0.3,1.7-0.6,2.4c-0.3,0.6-0.4,1.3-0.3,2c0,1.1,0.7,2.1,1.8,2.4c0.5,0.2,1,0.5,1.5,0.9
	c0.4,0.3,0.9,0.6,1.4,0.6c0.7,0.1,1.4,0.4,1.9,0.9c0.7,0.4,1.4,0.8,2.1,1.1c0.5,0.2,1.1,0.5,1.5,0.9c0.2,0.2,0.4,0.3,0.7,0.4
	c0.7,0.2,1.4,0.6,1.9,1.1c0.1,0.1,0.3,0.2,0.4,0.3c0.6,0.2,1.2,0.5,1.8,0.8c0.5,0.4,1,0.8,1.6,1.2c0.3,0.1,0.6,0.3,0.9,0.6
	c1,0.9,2.1,1.8,3.1,2.7c1.2,1.1,2.4,2.4,3.4,3.7c0.3,0.4,0.6,0.8,0.9,1.2c0.7,0.8,1.3,1.6,1.9,2.4c0.9,1.4,2.2,2.5,3.6,3.2
	c0.6,0.3,1.2,0.5,1.8,0.6c1.4,0.4,2.8,0.6,4.2,0.6c0.4,0,0.7,0.2,0.9,0.5c0.6,0.6,1.3,1,2.1,1.1c1,0.1,1.9,0.5,2.7,1.1
	c0.4,0.3,0.9,0.5,1.5,0.5c0.6,0,1.1,0.3,1.5,0.8c0.4,0.5,1,0.9,1.6,1.1c0.3,0.1,0.5,0.2,0.7,0.4c1,0.8,2,1.5,2.9,2.3
	c0.5,0.4,1,0.9,1.4,1.4c0.6,0.8,1.2,1.5,1.9,2.2c0.5,0.6,1,1.2,1.5,1.9c0.6,0.8,1.2,1.8,1.9,2.6c0.7,0.9,1.2,1.9,1.6,2.9
	c1.1,2.3,2,4.7,2.7,7.1c0.1,0.3,0.2,0.7,0.3,1c0.1,1.2,0.5,2.4,1,3.4c0.2,0.5,0.3,1,0.3,1.6c0.1,0.8,0.1,1.5,0.1,2.3
	c-0.1,1.5,0.7,3,2,3.9c0.4,0.2,0.7,0.5,1,0.9c0.4,0.6,0.8,1.2,1.1,1.8c0.2,0.4,0.4,0.9,0.6,1.4c0.3,0.6,0.4,1.2,0.4,1.8
	c0,0.4,0,0.9,0,1.3c0,0.8,0.3,1.5,0.7,2.1c0.3,0.5,0.6,1.1,0.8,1.7c0.3,0.8,0.6,1.7,0.9,2.5c0.4,0.9,0.6,2,0.7,3
	c0,0.8,0.2,1.7,0.6,2.4c0.2,0.4,0.3,0.8,0.3,1.3c0.2,1.8,0.3,3.5,0.5,5.3c0.1,0.3,0.1,0.7,0.2,1c0.3,1.1,0.5,2.2,0.7,3.3
	c0.1,0.6,0.3,1.2,0.6,1.8c0.4,0.6,0.6,1.3,0.7,2c0.1,0.8,0.3,1.6,0.7,2.3c0.3,0.5,0.5,1.1,0.5,1.6c0.3,1.9,0.5,3.9,0.8,5.8
	c0.1,0.4,0.2,0.9,0.4,1.3c0.4,0.8,0.5,1.7,0.4,2.6c-0.1,1.5,0,2.9,0,4.4c0,2.6,0.1,5.1,0.1,7.7c0,0.9-0.1,1.9-0.2,2.8
	c-0.1,0.4-0.1,0.7-0.1,1.1c0.2,2,0,3.9,0,5.9c0,3.6,0,7.2-0.1,10.8c0,0.4-0.1,0.9-0.3,1.3c-0.4,0.8-0.6,1.6-0.6,2.4
	c0,0.4-0.1,0.9-0.3,1.3c-0.5,1.4-1,2.9-1.5,4.3c-0.4,1.2-0.9,2.3-1.4,3.4c-0.4,0.7-1,1.4-1.5,2c-0.4,0.5-0.9,0.8-1.4,1.3
	s-0.9,1-1.3,1.5c-0.1,0.2-0.2,0.4-0.4,0.5c-0.8,0.6-1.7,1.3-2.6,1.9c-0.2,0.1-0.4,0.2-0.6,0.4c-0.9,1.1-2.3,1.6-3.4,2.5
	c-0.5,0.4-0.9,0.8-1.4,1.2s-0.7,0.5-1.1,0.8l-0.1,0c-0.9,0.2-1.1,1.3-2,1.5c-0.8,0.2-1.5,0.6-2.1,1.1c-0.4,0.3-0.8,0.5-1.3,0.7
	c-0.5,0.2-0.9,0.4-1.3,0.7c-0.6,0.5-1.3,0.8-2,1c-0.8,0.2-1.6,0.5-2.3,1.1c-0.4,0.3-0.8,0.4-1.2,0.4c-0.7,0.1-1.3,0.2-2,0.4
	c-0.6,0.1-1.2,0.4-1.7,0.7c-0.5,0.4-1,0.5-1.6,0.5c-1.1,0-2.3,0.1-3.5,0.1c-1.3-0.1-2.5,0.4-3.4,1.3c-0.1,0.1-0.1,0.1-0.2,0.2
	c-1.8,1.1-2.6,2.9-3.4,4.6c-0.3,0.6-0.5,1.1-0.8,1.7c-0.1,0.2-0.2,0.4-0.3,0.6c-0.3,1.3-0.8,2.5-1.3,3.8c-0.2,0.5-0.4,1-0.7,1.4
	c-0.4,0.6-0.9,1.2-1.4,1.8c-0.5,0.7-1.3,1.2-2.1,1.5c-0.5,0.1-1,0.4-1.4,0.7c-0.5,0.3-1.1,0.6-1.7,0.6c-0.7,0.1-1.4,0.3-2.1,0.4
	c-0.3,0.1-0.7,0.2-1,0.3c-0.7,0.3-1.4,0.6-2.1,0.9c-0.9,0.2-1.4,1-1.3,1.9c0,0,0,0,0,0c0,1.2,0.3,2.4,0.7,3.5
	c0.3,0.6,0.5,1.3,0.6,1.9c0.3,1.4,0.7,2.7,1.3,4c0.2,0.4,0.3,0.8,0.4,1.3c0.2,0.8,0.5,1.6,0.9,2.4c0.2,0.4,0.4,0.9,0.4,1.4
	c0.1,0.8,0.4,1.6,0.9,2.2c0.2,0.3,0.4,0.6,0.5,0.9c0.5,0.8,1.2,1.5,2,1.9c0.9,0.4,1.6,1.1,2.1,2c0.1,0.2,0.2,0.3,0.3,0.4
	c0.9,1,1.6,2.2,2,3.6c0.3,1.1,0.8,2.1,1.4,3c0.1,0.2,0.2,0.3,0.2,0.5c0.3,1,0.7,2.1,1,3.2c0.2,1,0.6,2,1.1,2.8
	C413.7,413,413.6,413,413.4,414z M431.8,324.5L431.8,324.5c1.7,0,3.5,0,5.2,0c0.5,0,1,0.1,1.4,0.2c0.3,0.1,0.6,0.3,0.6,0.6
	c0,0.3-0.2,0.5-0.4,0.6c-0.7,0.4-1.4,0.9-2.1,1.2c-1.2,0.5-2.4,1.1-3.5,1.9c-0.3,0.2-0.5,0.3-0.8,0.4c-0.8,0.3-1.5,0.7-2.1,1.3
	c-0.4,0.3-0.8,0.6-1.2,0.8c-0.2,0.1-0.5,0.2-0.7,0.4c-1.3,1-2.7,1.9-3.9,3c-1.2,0.9-1.9,2.4-2,3.9c0,0.8-0.3,1.6-0.6,2.3
	c-0.2,0.4-0.3,0.7-0.4,1.1c-0.3,1.2,0.2,2.5,2.1,2.1c1.6-0.3,3.2-0.8,4.7-1.4c0.3-0.1,0.6-0.3,0.9-0.3c1.8-0.5,3.6-1.1,5.3-2
	c2.1-0.9,4.2-2,6.1-3.3c0.8-0.6,1.6-1.2,2.5-1.8c0.5-0.3,0.9-0.7,1.3-1.1c0.9-0.8,1.9-1.6,2.8-2.5c3-3.1,5-6.9,5.9-11.1
	c0.6-2.9,0.7-5.8,0.4-8.8c-0.1-0.6-0.2-1.2-0.2-1.9c-0.1-2.5-0.4-5.1-0.8-7.5c-0.1-0.5-0.2-1-0.4-1.4c-0.2-0.6-0.4-1.3-0.5-1.9
	c-0.1-0.3-0.1-0.6,0-0.9c0.1-0.4,0.4-0.6,0.8-0.6c0.1,0,0.1,0,0.2,0c0.4,0.1,0.8,0.4,1.2,0.5c0.4,0.2,1,0,1.2-0.4c0,0,0,0,0,0
	c0.3-0.6,0.5-1.4,0.3-2.1c-0.3-1.9-0.5-3.9-0.7-5.8c-0.2-1.8-0.6-3.5-1-5.2c-0.2-0.9-0.5-1.7-0.8-2.5c-0.1-0.2-0.1-0.3-0.2-0.5
	c-0.3-0.5-0.9-0.6-1.4-0.3c-0.1,0.1-0.2,0.1-0.3,0.2c-0.2,0.3-0.3,0.7-0.4,1c-0.4,1-0.7,1.9-1.1,2.8c-0.1,0.4-0.5,0.7-0.9,0.6
	c-0.4-0.1-0.7-0.4-0.8-0.8c-0.1-0.3-0.1-0.7-0.1-1.1c0-0.6,0-1.2,0.1-1.9c0-0.9,0.1-1.9,0.1-2.8c0-2.3-0.1-4.6-0.2-6.9
	c-0.1-1.7-0.3-3.5-0.5-5.2c-0.2-1.1-0.4-2.3-0.7-3.4c-0.2-0.7-0.4-1.3-0.7-2c-0.4-1.1-0.9-2.1-1.3-3.2c-0.5-1.4-1.1-2.8-2-4
	c-0.1-0.2-0.2-0.4-0.3-0.6c-0.6-1.5-1.6-2.8-3-3.6c-0.4-0.3-0.9-0.6-1.4-0.7c-1.1-0.2-2.1-0.6-3-1.2c-0.4-0.2-0.9-0.5-1.3-0.7
	c-0.9-0.4-1.6-0.9-2.2-1.6c-0.8-0.9-0.8-1.1-0.1-2.2c0,0,0.1-0.1,0.1-0.1c0.4-0.5,0.3-1.3-0.3-1.7c0,0,0,0-0.1,0
	c-0.2-0.1-0.5-0.3-0.7-0.3l-1.9-0.8c-0.7-0.3-1.3-0.8-1.8-1.4c-0.2-0.3-0.2-0.7,0.1-0.9c0.1-0.1,0.2-0.1,0.3-0.1
	c0.4-0.1,0.9-0.1,1.3,0c2,0.1,4,0.3,6,0.6c0.1,0,0.2,0,0.3,0c1,0.1,1.9-0.6,2-1.6c0-0.3,0-0.5-0.1-0.8c-0.1-0.3-0.1-0.5-0.2-0.8
	c-0.2-0.5-0.3-1-0.5-1.5c-0.4-1.2-0.8-2.4-1.1-3.5c-0.1-0.2-0.2-0.5-0.4-0.7c-0.2-0.3-0.3-0.5-0.5-0.8c-0.7-1.6-1.5-3-2.4-4.4
	c-1.2-1.9-2.7-3.5-4.5-4.9c-0.9-0.7-1.9-1.4-2.8-2.1c-0.6-0.5-1.3-0.9-2-1.3c-0.8-0.4-1.5-0.9-2.3-1.4c-0.4-0.3-0.9-0.5-1.4-0.5
	c-1-0.1-1.9-0.3-2.8-0.7c-1.7-0.7-3.6-1.1-5.4-1.1c-1.7,0.1-3.4,0-5.1-0.1c-0.9-0.1-1.9,0-2.8,0.3c-1.3,0.4-2.7,0.4-3.9,1.2h-0.1
	c-0.6,0.2-1.2,0-1.5-0.6c-0.2-0.4,0-0.8,0.5-1.2c1.9-1.4,3.9-2.5,6.1-3.3c0.6-0.2,1.1-0.6,1.5-1.1c0.4-0.4,0.5-1,0.3-1.5
	c-0.2-0.5-0.5-1-0.8-1.5c-1.2-1.3-2.4-2.6-3.6-3.9c-0.7-0.7-1.4-1.5-2.1-2.2s-1.2-1.1-1.9-1.7c-0.8-0.7-1.6-1.4-2.4-2.1
	c-0.9-0.8-1.8-1.5-2.8-2.2c-1.5-0.9-2.9-1.8-4.3-2.9c-0.3-0.2-0.5-0.3-0.8-0.4c-0.9-0.4-1.8-0.9-2.6-1.4c-1-0.7-2.2-1.2-3.4-1.6
	c-1-0.3-2.1-0.5-3.1-0.6c-1.2-0.1-1.7-0.6-1.9-1.9c-0.2-1.2,0-2.3,0.6-3.3c0.4-0.6,0.6-1.3,0.8-2c0.1-0.4,0.2-0.8,0.4-1.1
	c0.6-1,0.9-2.1,0.9-3.3c0-0.7,0.1-1.3,0.3-2c0.2-1.1,0.5-2.3,0.7-3.4c0.1-0.6,0.2-1.1,0.2-1.7c0-2.1-0.5-4.2-1.4-6.1
	c-0.3-0.5-0.7-0.9-1.2-1.2c-0.3-0.2-0.5-0.4-0.8-0.5c-0.9-0.5-1.4-1.6-1.3-2.6c0.1-1.5,0.1-2.9,0.1-4.4c0.1-2.2-0.6-2.9-2.8-2.5
	c-0.8,0.1-1.6,0.3-2.3,0.6c-1.5,0.4-3,0.6-4.5,0.6c-1.7,0-3.5,0.1-5.2,0.3c-2.8,0.3-5.7,0.4-8.5,0.4c-2.2,0-4.4,0-6.5,0
	c-2,0-4-0.1-6-0.2c-2.4-0.1-4.7-0.3-7-0.4c-1.8,0-3.5-0.3-5.3-0.8c-0.8-0.3-1.7-0.4-2.6-0.5c-1-0.2-1.9,0.5-2.1,1.5
	c0,0.1,0,0.2,0,0.4c0,0.4,0,0.9,0,1.3c0.1,0.7,0.2,1.4,0.3,2.1c0,0.7,0,1.4,0,2.1c0,0.9-0.5,1.7-1.2,2.1c-1,0.7-1.9,1.6-2.7,2.6
	c-0.8,0.8-1.4,1.9-1.6,3c-0.4,1.8-0.5,3.7,0,5.6c0.4,1.3,0.8,2.5,1.4,3.8c0.9,1.7,1.6,3.4,2.2,5.1c0.2,0.7,0.4,1.4,0.6,2
	c0.2,1,0.4,2.1,0.7,3.1c0.3,1.1,0.4,2.2,0.4,3.3c0,1.4-0.6,2.6-1.6,3.6c-1.1,1.2-2.3,2.2-3.7,3c-0.4,0.3-0.8,0.5-1.2,0.9
	c-0.7,0.5-1.4,1.1-2.1,1.6c-0.4,0.3-0.7,0.6-1,0.9c-1.6,1.8-3.3,3.6-4.9,5.4c-0.4,0.5-0.7,1-1,1.6c-0.5,0.7-0.4,1.6,0.3,2.2
	c0.9,1,1.7,2,2.5,2.9c0.6,0.6,1.2,1.3,1.6,2.1c0.8,1,1.5,2.1,2,3.3c0.1,0.1,0.1,0.2,0.2,0.3c0.7,0.8,1.2,1.8,1.5,2.8
	c0.1,0.2,0.2,0.4,0.3,0.6c0.6,0.9,1.1,1.9,1.3,3c0.2,0.8,0.5,1.6,0.8,2.4c0.4,0.8,0.6,1.7,0.8,2.7c0.1,1,0.3,2,0.5,3
	c0.3,1.5,0.5,3.1,0.4,4.6c-0.1,1.3-0.1,2.7-0.3,4c-0.2,1.9-0.3,3.9-0.1,5.9c0.1,0.9,0.3,1.8,0.7,2.7c0.2,0.5,0.4,1,0.5,1.5
	c0.1,1.2,0,2.3-0.2,3.4c-0.6,2.2-1.3,4.4-2.1,6.6c-0.3,0.6-0.6,1.1-1,1.6c-0.1,0.2-0.4,0.4-0.5,0.6c-0.8,1.3-1.7,2.5-2.8,3.6
	c-0.7,0.8-1.5,1.5-2.4,2.1c-0.5,0.3-1,0.7-1.5,1c-0.8,0.7-1.8,1.1-2.9,1.3c-1.8,0.1-3.5,0.4-5.2-0.6c-1-0.6-2.4-0.4-3.2,0.4
	l-1.3,1.3c-0.5,0.4-0.9,0.9-1.4,1.3c-1.1,0.9-2.2,1.8-3.3,2.7c-0.2,0.2-0.4,0.4-0.6,0.7c-0.2,0.3-0.4,0.7-0.7,1
	c-0.4,0.5-0.7,1.2-0.7,1.8c0,0.4,0,0.8,0,1.2c0.1,2.6,0.2,5.2,0.4,7.9c0,0.6,0.2,1.1,0.4,1.7c0.4,0.9,0.6,1.8,0.7,2.7
	c0.1,0.8,0.3,1.7,0.6,2.5c0.4,1,0.9,1.9,1.3,2.9c0.7,1.9,1.6,3.7,2.9,5.2c0.2,0.2,0.3,0.4,0.5,0.6c0.5,0.6,0.9,1.3,1.5,1.9
	c0.8,0.9,1.5,1.7,2.3,2.6c0.7,0.8,1.5,1.6,2.3,2.4c1.4,1.2,2.8,2.3,4.3,3.4c1,0.7,2,1.3,3.1,1.9c1,0.5,2.1,0.9,3.2,1.4
	c0.9,0.4,1.5,0.2,1.7-0.8c0.2-0.7,0.2-1.3,0.2-2c-0.1-2.8,0-5.7,0.3-8.5c0.1-1.7,0.2-3.3,0.5-5c0-0.3,0.1-0.6,0-0.9
	c0.1-1.3,0.1-2.7,0.2-4c0.1-2,0.3-4.1,0.5-6.1c0-0.4,0.1-0.8,0.2-1.2c0.6-2.1,1-4.2,1.2-6.4c0.2-2.2,1-4.2,1.2-6.4
	c0.1-0.3,0.2-0.7,0.4-1c0.2-0.7,0.5-1.4,0.6-2.2s0.2-1.4,0.3-2.1c0.1-0.8,0.3-1.6,0.6-2.3c0.1-0.3,0.3-0.5,0.5-0.7
	c0.2-0.2,0.5-0.2,0.7,0c0,0,0.1,0.1,0.1,0.1c0.1,0.4,0.2,0.8,0.3,1.3c0,1.3,0,2.6,0.1,3.9c0,0.5,0.1,1,0.1,1.5
	c0.1,0.7,0.4,1.5,0.5,2.2c0.1,0.4,0.2,0.8,0.7,0.9c0.4,0.1,0.8-0.1,1.1-0.4c0.1-0.2,0.3-0.4,0.4-0.5c0.3-0.4,0.5-0.7,0.8-1.1
	c1.3-1.7,3.1-2.9,4.6-4.5c0.4-0.4,0.8-0.8,1.3-1.2c0.8-0.8,1.6-1.5,2.6-2.1c1.6-0.9,3.1-2.1,5-2.5c0.1,0,0.2-0.1,0.4-0.2
	c2-1.1,4.2-1.7,6.5-1.9c0.6,0,1.1-0.2,1.7-0.3c0.9-0.1,1.8-0.2,2.6-0.3c2.8-0.1,5.7,0,8.5,0.2c1.1,0.2,2.3,0.1,3.4-0.4
	c0.6-0.2,1.2-0.4,1.8-0.5c0.9-0.2,1.8-0.6,2.5-1.2c0.3-0.3,0.6-0.5,0.9-0.8c1.3-1.1,2.3-2.4,3-3.9c0.2-0.4,0.4-0.9,0.5-1.4
	c0.3-0.9,0.5-1.9,0.8-2.8c0.3-1,0.3-2,0.1-3c-0.3-1-0.5-2.1-0.9-3.1c-0.6-1.9-1.9-3.5-3.6-4.4c-2.3-1.3-4.9-2-7.5-2.1
	c-0.2,0-0.4,0-0.5,0c-1-0.2-1.9-0.4-2.9-0.6c-0.3,0-0.5-0.3-0.5-0.5c0-0.3,0.2-0.5,0.4-0.6c0.2-0.1,0.5-0.2,0.8-0.3
	c1.1-0.3,2.2-0.5,3.3-0.6c0.9,0,1.8-0.2,2.6-0.5c1.3-0.5,2.6-0.8,4-0.9c0.8-0.1,1.6-0.3,2.3-0.6c1.5-0.6,3-1.1,4.6-1.4
	c0.7-0.1,1.4-0.4,2-0.7c1.5-0.7,3-1.4,4.5-2.1c0.5-0.3,1.1-0.2,1.5,0.2c0.5,0.4,0.8,1,1,1.7c0.4,1.9,1.2,3.8,2.1,5.6
	c0.9,1.8,2.2,3.3,3.8,4.6c0.4,0.3,0.9,0.5,1.2,0.8c0.9,0.8,1.9,1.3,3.1,1.5c2.1,0.5,4.3,1.2,6.5,1.1c0.1,0,0.3,0,0.4,0
	c0.7,0.1,1.2,0.7,1.2,1.4c0,0.5-0.2,1.1-0.5,1.5c-0.5,0.5-0.8,1.2-0.8,1.9c0,0.4-0.1,0.9-0.3,1.3c-0.2,0.7-0.3,1.5-0.2,2.2
	c0.1,0.7,0.1,1.5,0.2,2.3c0,0.8,0.2,1.6,0.4,2.4c0.3,0.9,0.7,1.7,1.2,2.5c0.5,0.9,1.2,1.6,2,2.1c1.3,0.7,2.6,1.3,3.9,2.1
	c1,0.6,2,1.1,3.1,1.5c0.5,0.2,0.9,0.5,1.4,0.8c1.3,1,2.7,1.8,4.2,2.6c0.4,0.2,0.8,0.4,1.2,0.6c1.9,1.4,3.8,2.9,5.8,4.3
	c0.4,0.3,0.7,0.8,0.5,1.3c-0.1,0.4-0.6,0.6-1.2,0.6c-0.6-0.1-1.1-0.3-1.6-0.6c-0.6-0.4-1.3-0.7-2.1-0.8c-2.2-0.5-4.4-1-6.6-1.5
	c-0.8-0.2-1.7-0.3-2.5-0.4c-1.4,0-2.8-0.2-4.2-0.6c-2-0.4-4.1-0.5-6.1-0.3c-0.2,0-0.4,0.1-0.6,0.1c-1.1,0.4-2.1,0.6-3.3,0.6
	c-0.3,0-0.7,0.1-1,0.3c-0.5,0.2-0.8,0.9-0.6,1.4c0,0.1,0.1,0.1,0.1,0.2c0.2,0.3,0.4,0.5,0.6,0.7c0.4,0.3,0.9,0.5,1.4,0.8
	c0.9,0.5,1.8,1,2.6,1.5c2,1.4,3.9,2.8,5.7,4.4c0.9,0.7,1.7,1.4,2.5,2.2c1,0.9,1.8,1.9,2.8,2.9c0.2,0.3,0.5,0.5,0.7,0.8
	c2,2.3,3.7,4.8,5.3,7.3c0.4,0.6,0.8,1.2,1.1,1.8c0.8,2,2.3,3.6,2.7,5.8c0.1,0.2,0.1,0.3,0.2,0.5c0.2,0.6,0.5,1.2,0.7,1.9
	c0.4,1.3,0.8,2.6,1.3,3.9c0.3,0.9,0.6,1.9,0.8,2.8c0.1,0.7,0.4,1.5,0.5,2.2c0.1,0.5,0.2,0.9,0.3,1.4c0.2,2.1,0.3,4.2,0.5,6.2
	c0,0.1,0,0.3,0,0.4c0,1.3,1.1,2.3,2.4,2.2c0.1,0,0.3,0,0.4,0c0.5,0,1.1-0.1,1.6-0.1L431.8,324.5z M235.6,324.2
	c1.9-0.1,3.4-0.2,4.8-0.3c0.7,0,1.4-0.2,2.1-0.5c0.9-0.5,1.9-0.8,3-0.9c0.5-0.1,0.9-0.2,1.4-0.5c0.5-0.3,0.7-0.9,0.4-1.3
	c-0.1-0.1-0.1-0.2-0.2-0.3c-0.2-0.3-0.5-0.5-0.9-0.6c-1.4-0.4-2.7-1.2-4.1-1.5c-0.8-0.2-1.5-0.6-2.2-1c-0.4-0.2-0.5-0.7-0.3-1.1
	c0.1-0.1,0.1-0.2,0.3-0.3c0.3-0.2,0.6-0.4,0.9-0.5c0.3-0.1,0.7-0.2,1.1-0.2c0.8-0.1,1.7-0.3,2.4-0.6c0.5-0.2,1-0.3,1.5-0.4
	c1.1-0.1,2.1-0.4,3-0.9c0.3-0.2,0.6-0.3,0.9-0.4c1.7-0.5,3.2-1.2,4.8-2c1.4-0.9,2.9-1.6,4.2-2.5c2.4-1.7,4.6-3.7,6.5-5.9
	c1.4-1.5,2.5-3.3,3.2-5.2c0.4-1.1,0.9-2.1,1.3-3.2c0.3-0.7,0.4-1.5,0.4-2.4c-0.1-0.9-0.7-1.3-1.5-0.8c-0.4,0.2-0.7,0.4-1,0.7
	c-0.6,0.5-1.2,1-1.8,1.4c-0.3,0.2-0.5,0.5-0.9,0.6c-1.6,0.9-3.2,1.9-4.8,2.9c-0.3,0.2-0.7,0.4-1.1,0.5c-0.8,0.2-1.3-0.2-1.1-1.1
	c0.1-0.4,0.3-0.9,0.5-1.2c1-1.4,1.8-3,3-4.3c0.2-0.2,0.4-0.5,0.5-0.8c0.6-0.9,0.3-2.2-0.7-2.7c0,0,0,0,0,0c-0.5-0.3-1-0.5-1.6-0.6
	c-1.8-0.2-3.5-0.6-5.2-1.2c-1.6-0.5-3.2-1.2-4.6-2.1c-0.5-0.4-1-0.7-1.6-1c-0.3-0.1-0.5-0.3-0.8-0.5c-1.9-1.9-4.1-3.6-5.4-6
	c-0.6-0.8-1-1.6-1.3-2.6c-0.1-0.2-0.2-0.4-0.3-0.6c-0.7-1.1-1.2-2.4-1.6-3.7c-0.1-0.4-0.3-0.9-0.5-1.3c-0.4-0.8-0.6-1.6-0.7-2.4
	c-0.1-1.1-0.4-2.1-0.8-3.1c-0.3-0.7-0.4-1.4-0.4-2.1c0-0.3,0-0.6-0.1-0.9c-0.1-0.5-0.6-0.9-1.1-0.9c-0.1,0-0.2,0-0.3,0.1
	c-0.2,0.1-0.4,0.2-0.6,0.4c-0.6,0.6-1.3,1.2-1.9,1.9c-1.1,1.1-2.2,2.2-3.2,3.4c-0.3,0.4-0.7,0.8-1,1.2c-0.3,0.3-0.5,0.7-0.8,1
	c-1.2,1.2-2.2,2.4-3.3,3.7c-1.1,1.4-2.3,2.7-3.4,4.1c-0.8,0.8-1.3,1.8-1.5,2.9c-0.1,0.3-0.2,0.7-0.4,1c-0.3,0.6-0.5,1.2-0.6,1.9
	c-0.3,2.7-0.6,5.4-0.7,8.1c-0.1,2.2,0,4.4,0.3,6.5c0.2,1.4,0.1,2.8-0.3,4.1c-0.3,0.8-0.4,1.5-0.6,2.3c-0.3,0.9-0.3,1.9-0.1,2.8
	c0.3,1.2,0.5,2.4,0.8,3.6c0.2,1,0.4,2.1,0.5,3.2c0.1,0.8,0.1,1.7,0.1,2.5c0,1.9,1,3.4,1.7,5c0.9,1.1,2,2,3.2,2.8
	c0.6,0.4,1.2,0.7,1.8,1.2c0.7,0.5,1.5,0.8,2.3,1c0.7,0.1,1.4,0.4,2,0.6c0.6,0.2,1.3,0.4,1.9,0.5
	C232.8,324.1,234.4,324.2,235.6,324.2L235.6,324.2z M347.8,139.4L347.8,139.4h5.3c0.4,0,0.8,0,1.2,0c2.2-0.3,4.3-0.6,6.5-0.8
	c0.8-0.1,1.6-0.1,2.4-0.1c2.1-0.1,4.2-0.3,6.2-0.6c0.7-0.1,1.4-0.2,2.1-0.3c1.1-0.1,1.9-0.9,2-2c0.1-0.4,0-0.9-0.1-1.3
	c-0.2-0.7-0.5-1.4-0.7-2.1c-0.3-0.6-0.4-1.2-0.5-1.8c-0.1-0.8-0.3-1.6-0.8-2.3c-0.2-0.3-0.3-0.5-0.4-0.8c-0.8-1.8-1.8-3.6-2.9-5.2
	c-0.8-1.2-1.7-2.4-2.6-3.6c-0.2-0.3-0.5-0.5-0.8-0.7c-0.3-0.2-0.5-0.4-0.8-0.6c-0.7-0.7-1.5-1.3-2.3-1.8c-1.6-1.2-3.5-1.7-5.2-2.6
	c-0.3-0.1-0.7-0.2-1-0.2c-0.8-0.1-1.6-0.2-2.4-0.4c-2.3-0.6-4.8-0.7-7.1-0.4c-0.5,0-1,0.2-1.4,0.3c-0.6,0.2-1.3,0.4-1.9,0.4
	c-0.7,0-1.4,0.2-2.1,0.5c-0.6,0.3-1.2,0.5-1.9,0.7c-1.6,0.6-3.1,1.5-4.6,2.4c-0.8,0.9-1.7,1.8-2.7,2.6c-0.8,0.8-1.5,1.6-2.2,2.5
	c-0.4,0.6-0.8,1.2-1.2,1.9c-0.3,0.4-0.5,0.9-0.8,1.4c-0.7,0.9-1.2,2-1.5,3.1c-0.1,0.3-0.3,0.7-0.5,0.9c-0.4,0.6-0.7,1.3-0.8,2.1
	c-0.1,0.7-0.3,1.3-0.6,2c-0.2,0.7-0.5,1.4-0.8,2.1c-0.5,1-0.1,2.2,0.9,2.7c0.1,0.1,0.3,0.1,0.4,0.2c0.5,0.1,1,0.2,1.4,0.3
	c0.5,0.1,1,0.1,1.5,0.1c1.1,0.1,2.2,0.3,3.3,0.4c2.1,0.2,4.2,0.1,6.2,0.5c3.3,0.5,6.7,0.7,10.1,0.7
	C347.2,139.4,347.5,139.4,347.8,139.4z M330.4,352.2L330.4,352.2c0-0.2,0-0.4,0-0.7c0.2-2.6-0.6-5.1-2.2-7.1
	c-0.8-1.3-1.8-2.5-2.8-3.7c-0.1-0.1-0.2-0.3-0.3-0.4c-0.5-0.9-1.1-1.8-1.8-2.6c-0.2-0.2-0.3-0.4-0.4-0.7c-0.3-0.7-0.6-1.3-1.1-1.8
	c-0.3-0.4-0.6-0.8-0.9-1.3c-0.8-1.4-1.8-2.7-2.9-3.8c-0.2-0.2-0.4-0.5-0.6-0.7c-0.3-0.4-0.7-0.8-1-1.2s-0.9-1-1.3-1.5
	s-1.1-1.3-1.8-1.8c-0.3-0.2-0.6-0.4-1-0.5c-0.3-0.1-0.6,0.1-0.7,0.4c0,0.1,0,0.1,0,0.2c0,0.3,0.1,0.5,0.2,0.8
	c0.1,0.6,0.3,1.1,0.4,1.7c0.3,2.2,0.3,4.4,0,6.6c-0.1,0.7-0.3,1.3-0.7,1.9c-0.2,0.3-0.4,0.7-0.5,1.1c-0.8,2.4-1.5,4.9-1.9,7.5
	c-0.2,1-0.2,2.1,0.3,3.1c0.5,1.3,1,2.5,1.5,3.8c0.3,0.7,0.7,1.4,1,2.2c0.6,1.8,1.1,3.7,1.5,5.5c0.4,1.6,0.2,3.2-0.5,4.7
	c-0.4,0.9-0.7,1.9-0.9,2.9c-0.1,0.5-0.2,1-0.4,1.4c-0.4,1.3-0.4,2.7,0,4.1c0.2,0.7,0.4,1.4,0.5,2.1c0.1,0.5,0.3,1,0.6,1.5
	c0.5,0.8,1,1.7,1.5,2.5c0.6,0.8,1.2,1.6,1.9,2.4c1.6,1.4,3.3,2.7,5.2,3.7c0.7,0.5,1.5,0.9,2.4,1.3c1.9,0.9,3.9,1.6,6,2
	c0.4,0.1,0.9,0.2,1.3,0.4c1.4,0.5,2.9,0.8,4.4,0.9c1,0,2,0.1,3,0.4c0.5,0.1,1,0.2,1.4,0.2c0.5,0.1,1-0.3,1.1-0.9
	c0-0.2,0-0.4-0.1-0.6c-0.1-0.2-0.2-0.5-0.4-0.7c-0.3-0.4-0.7-0.7-1-1.1c-0.9-1-1.7-2.1-2.3-3.2c-0.9-1.6-1.6-3.3-2.1-5.1
	c-0.2-0.8-0.3-1.7-0.3-2.5c0-0.9,0-1.8,0-2.7c-0.1-1.3-0.3-2.5-0.5-3.8c-0.7-1.2-1-2.7-1.8-3.9c-0.6-1-1.1-2-1.5-3
	c-0.6-1.2-0.9-2.5-1-3.9c0-0.9,0.1-1.9,0.1-2.8S330.3,353.2,330.4,352.2z"/>
<path class="st1" d="M431.8,324.5h-4.7c-0.5,0-1.1,0.1-1.6,0.1c-1.2,0.3-2.5-0.5-2.7-1.8c0-0.1,0-0.3,0-0.4c0-0.1,0-0.3,0-0.4
	c-0.2-2.1-0.3-4.2-0.5-6.2c-0.1-0.5-0.2-1-0.3-1.4c-0.2-0.7-0.4-1.5-0.5-2.2c-0.2-1-0.4-1.9-0.8-2.8c-0.5-1.3-0.8-2.6-1.3-3.9
	c-0.2-0.6-0.5-1.2-0.7-1.9c-0.1-0.2-0.2-0.3-0.2-0.5c-0.4-2.2-1.9-3.8-2.7-5.8c-0.3-0.6-0.7-1.2-1.1-1.8c-1.6-2.6-3.3-5-5.3-7.3
	c-0.2-0.3-0.5-0.5-0.7-0.8c-0.9-1-1.8-2-2.8-2.9c-0.8-0.8-1.6-1.5-2.5-2.2c-1.8-1.5-3.7-3-5.7-4.4c-0.8-0.5-1.7-1-2.6-1.4
	c-0.5-0.3-1-0.5-1.4-0.8c-0.3-0.2-0.5-0.4-0.6-0.7c-0.3-0.5-0.2-1.2,0.3-1.5c0.1,0,0.1-0.1,0.2-0.1c0.3-0.2,0.7-0.2,1-0.3
	c1.1-0.1,2.2-0.3,3.3-0.6c0.2-0.1,0.4-0.1,0.6-0.1c2-0.2,4.1-0.1,6.1,0.3c1.4,0.4,2.8,0.6,4.2,0.6c0.8,0,1.7,0.2,2.5,0.4
	c2.2,0.5,4.4,1,6.6,1.5c0.7,0.1,1.5,0.4,2.1,0.8c0.5,0.4,1,0.6,1.6,0.6c0.6,0,1.1-0.2,1.2-0.6c0.1-0.5-0.1-1-0.5-1.3
	c-1.9-1.5-3.8-2.9-5.8-4.3c-0.4-0.2-0.8-0.4-1.2-0.6c-1.4-0.8-2.8-1.7-4.2-2.6c-0.4-0.3-0.9-0.6-1.4-0.8c-1.1-0.4-2.1-1-3.1-1.5
	c-1.2-0.8-2.6-1.4-3.9-2.1c-0.8-0.5-1.5-1.2-2-2.1c-0.5-0.8-0.9-1.6-1.2-2.5c-0.2-0.8-0.3-1.6-0.4-2.4c0-0.8-0.1-1.5-0.2-2.3
	c-0.1-0.7,0-1.5,0.2-2.2c0.2-0.4,0.3-0.8,0.3-1.3c0-0.7,0.3-1.4,0.8-1.9c0.4-0.4,0.6-0.9,0.5-1.5c0-0.7-0.5-1.3-1.2-1.4
	c-0.1,0-0.3,0-0.4,0c-2.3,0.1-4.4-0.6-6.5-1.1c-1.1-0.2-2.2-0.8-3.1-1.5c-0.4-0.3-0.8-0.5-1.2-0.8c-1.6-1.2-2.9-2.8-3.8-4.6
	c-1-1.8-1.7-3.6-2.1-5.6c-0.2-0.6-0.5-1.2-1-1.7c-0.4-0.4-1-0.5-1.5-0.2c-1.5,0.7-3,1.4-4.5,2.1c-0.6,0.3-1.3,0.5-2,0.7
	c-1.6,0.3-3.1,0.8-4.6,1.4c-0.7,0.3-1.5,0.5-2.3,0.6c-1.4,0.1-2.7,0.4-4,0.9c-0.8,0.3-1.7,0.5-2.6,0.5c-1.1,0.1-2.2,0.3-3.3,0.6
	c-0.3,0.1-0.5,0.2-0.8,0.3c-0.3,0.1-0.5,0.3-0.4,0.6c0,0.3,0.2,0.5,0.5,0.5c1,0.2,1.9,0.4,2.9,0.6c0.2,0,0.4,0,0.5,0
	c2.6,0.1,5.2,0.8,7.5,2.1c1.7,0.9,3,2.5,3.6,4.4c0.4,1,0.6,2,0.9,3.1c0.2,1,0.2,2-0.1,3c-0.3,1-0.5,1.9-0.8,2.8
	c-0.1,0.5-0.3,0.9-0.5,1.4c-0.7,1.5-1.7,2.8-3,3.9c-0.3,0.3-0.6,0.5-0.9,0.8c-0.7,0.6-1.5,1.1-2.5,1.2c-0.6,0.1-1.2,0.3-1.8,0.5
	c-1.1,0.4-2.3,0.5-3.4,0.4c-2.8-0.3-5.7-0.3-8.5-0.2c-0.9,0-1.8,0.1-2.6,0.3c-0.6,0.1-1.1,0.2-1.7,0.3c-2.3,0.2-4.5,0.8-6.5,1.9
	c-0.1,0.1-0.2,0.1-0.4,0.2c-1.9,0.5-3.3,1.7-5,2.5c-0.9,0.6-1.8,1.3-2.6,2.1c-0.4,0.4-0.9,0.8-1.3,1.2c-1.5,1.5-3.3,2.7-4.6,4.5
	c-0.3,0.4-0.5,0.7-0.8,1.1c-0.1,0.2-0.2,0.4-0.4,0.5c-0.2,0.3-0.7,0.5-1.1,0.4c-0.5-0.1-0.6-0.5-0.7-0.9c-0.2-0.7-0.4-1.5-0.5-2.2
	c-0.1-0.5-0.1-1-0.1-1.5c0-1.3,0-2.6-0.1-3.9c0-0.4-0.1-0.9-0.3-1.3c-0.1-0.2-0.4-0.4-0.7-0.2c0,0-0.1,0-0.1,0.1
	c-0.2,0.2-0.4,0.5-0.5,0.7c-0.3,0.7-0.5,1.5-0.6,2.3c-0.1,0.7-0.1,1.4-0.3,2.1s-0.4,1.5-0.6,2.2c-0.1,0.3-0.3,0.7-0.4,1
	c-0.3,2.2-1,4.2-1.2,6.4c-0.2,2.2-0.6,4.3-1.2,6.4c-0.1,0.4-0.2,0.8-0.2,1.2c-0.2,2-0.3,4.1-0.5,6.1c-0.1,1.3-0.1,2.7-0.2,4
	c0,0.3,0,0.6,0,0.9c-0.3,1.7-0.4,3.3-0.5,5c-0.3,2.8-0.4,5.7-0.3,8.5c0,0.7,0,1.3-0.2,2c-0.3,1-0.8,1.2-1.7,0.8
	c-1.1-0.4-2.2-0.8-3.2-1.4c-1.1-0.5-2.1-1.2-3.1-1.9c-1.5-1.1-2.9-2.2-4.3-3.4c-0.8-0.8-1.6-1.6-2.3-2.4c-0.8-0.9-1.6-1.7-2.3-2.6
	c-0.5-0.6-1-1.3-1.5-1.9c-0.2-0.2-0.3-0.5-0.5-0.6c-1.3-1.5-2.3-3.3-2.9-5.2c-0.4-1-0.8-2-1.3-2.9c-0.3-0.8-0.6-1.6-0.6-2.5
	c-0.1-0.9-0.3-1.8-0.7-2.7c-0.2-0.5-0.3-1.1-0.4-1.7c-0.1-2.6-0.2-5.2-0.4-7.9c0-0.4,0-0.8,0-1.2c0-0.7,0.2-1.3,0.7-1.8
	c0.3-0.3,0.5-0.6,0.7-1c0.2-0.3,0.4-0.5,0.6-0.7c1.1-0.9,2.2-1.8,3.3-2.7c0.5-0.4,0.9-0.8,1.4-1.3l1.3-1.3c0.8-0.9,2.2-1.1,3.2-0.4
	c1.7,0.9,3.5,0.7,5.2,0.6c1.1-0.2,2-0.6,2.9-1.3c0.5-0.3,1-0.7,1.5-1c0.9-0.6,1.7-1.3,2.4-2.1c1-1.1,1.9-2.3,2.8-3.6
	c0.1-0.2,0.4-0.4,0.5-0.6c0.4-0.5,0.7-1,1-1.6c0.8-2.2,1.6-4.4,2.1-6.6c0.2-1.1,0.3-2.3,0.2-3.4c0-0.5-0.2-1-0.5-1.5
	c-0.4-0.8-0.6-1.8-0.7-2.7c-0.2-1.9-0.2-3.9,0.1-5.9c0.1-1.3,0.2-2.7,0.3-4c0.1-1.6-0.1-3.1-0.4-4.6c-0.2-1-0.3-2-0.5-3
	c-0.1-0.9-0.4-1.8-0.8-2.7c-0.3-0.8-0.6-1.6-0.8-2.4c-0.2-1.1-0.7-2.1-1.3-3c-0.1-0.2-0.3-0.4-0.3-0.6c-0.4-1-0.9-1.9-1.5-2.8
	c-0.1-0.1-0.2-0.2-0.2-0.3c-0.5-1.2-1.2-2.3-2-3.3c-0.5-0.8-1-1.5-1.6-2.1c-0.9-0.9-1.7-2-2.5-2.9c-0.6-0.6-0.7-1.5-0.3-2.2
	c0.3-0.6,0.6-1.1,1-1.6c1.6-1.8,3.3-3.6,4.9-5.4c0.3-0.3,0.6-0.6,1-0.9c0.7-0.6,1.4-1.1,2.1-1.6c0.4-0.3,0.8-0.6,1.2-0.9
	c1.4-0.8,2.6-1.8,3.7-3c1-0.9,1.5-2.2,1.6-3.6c0-1.1-0.1-2.2-0.4-3.3c-0.3-1-0.5-2.1-0.7-3.1c-0.2-0.7-0.4-1.4-0.6-2
	c-0.6-1.8-1.3-3.5-2.2-5.1c-0.5-1.2-1-2.5-1.4-3.8c-0.4-1.8-0.4-3.7,0-5.6c0.3-1.1,0.8-2.2,1.6-3c0.8-1,1.7-1.8,2.7-2.6
	c0.7-0.5,1.2-1.3,1.2-2.1c0-0.7,0-1.4,0-2.1c0-0.7-0.2-1.4-0.3-2.1c-0.1-0.4-0.1-0.9,0-1.3c0-1,0.8-1.8,1.8-1.9c0.1,0,0.2,0,0.4,0
	c0.9,0.1,1.8,0.2,2.6,0.5c1.7,0.5,3.5,0.7,5.3,0.8c2.4,0.1,4.7,0.3,7,0.4c2,0.1,4,0.2,6,0.2c2.2,0,4.4,0,6.5,0
	c2.8,0,5.7-0.1,8.5-0.4c1.7-0.2,3.5-0.2,5.2-0.3c1.5,0,3-0.2,4.5-0.6c0.8-0.2,1.5-0.4,2.3-0.6c2.2-0.4,2.9,0.3,2.8,2.5
	c0,1.5,0,2.9-0.1,4.4c-0.1,1,0.4,2.1,1.3,2.6c0.3,0.2,0.5,0.4,0.8,0.5c0.5,0.3,0.9,0.8,1.1,1.3c0.9,1.9,1.4,4,1.4,6.1
	c0,0.6-0.1,1.1-0.2,1.7c-0.2,1.1-0.5,2.3-0.7,3.4c-0.1,0.7-0.2,1.3-0.3,2c0,1.2-0.3,2.3-0.9,3.3c-0.2,0.3-0.3,0.7-0.4,1.1
	c-0.1,0.7-0.4,1.4-0.8,2c-0.6,1-0.8,2.2-0.6,3.3c0.2,1.2,0.7,1.7,1.9,1.9c1.1,0.1,2.1,0.3,3.1,0.6c1.2,0.4,2.3,0.9,3.4,1.6
	c0.8,0.5,1.7,0.9,2.6,1.4c0.3,0.1,0.6,0.3,0.8,0.4c1.4,1.1,2.8,2,4.3,2.9c1,0.7,1.9,1.4,2.8,2.2c0.8,0.7,1.6,1.4,2.4,2.1
	c0.6,0.6,1.3,1.1,1.9,1.7s1.5,1.4,2.1,2.2c1.2,1.3,2.5,2.6,3.6,3.9c0.4,0.5,0.6,1,0.8,1.5c0.2,0.5,0.1,1.1-0.3,1.5
	c-0.4,0.5-0.9,0.8-1.5,1.1c-2.2,0.8-4.2,1.9-6.1,3.3c-0.6,0.4-0.7,0.8-0.5,1.2c0.3,0.6,0.9,0.8,1.5,0.6h0.1c1.2-0.8,2.6-0.8,3.9-1.2
	c0.9-0.3,1.8-0.4,2.8-0.3c1.7,0,3.4,0.1,5.1,0.1c1.9,0,3.7,0.4,5.4,1.1c0.9,0.4,1.9,0.6,2.8,0.7c0.5,0,1,0.2,1.4,0.5
	c0.7,0.5,1.5,1,2.3,1.4c0.7,0.3,1.4,0.8,2,1.3c0.9,0.7,1.8,1.4,2.8,2.1c1.8,1.4,3.3,3,4.5,4.9c1,1.4,1.8,2.9,2.4,4.4
	c0.1,0.3,0.3,0.5,0.5,0.8c0.2,0.2,0.3,0.4,0.4,0.7c0.4,1.2,0.8,2.4,1.1,3.5c0.2,0.5,0.3,1,0.5,1.5c0.1,0.2,0.2,0.5,0.2,0.8
	c0.3,1-0.3,2-1.3,2.2c-0.2,0.1-0.4,0.1-0.6,0.1c-0.1,0-0.2,0-0.3,0c-2-0.3-4-0.5-6-0.6c-0.4-0.1-0.9-0.1-1.3,0
	c-0.3,0-0.6,0.4-0.5,0.7c0,0.1,0.1,0.2,0.1,0.3c0.4,0.6,1,1.1,1.8,1.4l1.9,0.8c0.3,0.1,0.5,0.2,0.7,0.3c0.6,0.4,0.7,1.1,0.4,1.7
	c0,0,0,0,0,0.1c0,0-0.1,0.1-0.1,0.1c-0.7,1-0.7,1.3,0.1,2.2c0.6,0.7,1.4,1.3,2.2,1.6c0.5,0.2,0.9,0.4,1.3,0.7c0.9,0.6,1.9,1,3,1.2
	c0.5,0.1,1,0.4,1.4,0.7c1.4,0.8,2.4,2.1,3,3.6c0.1,0.2,0.2,0.4,0.3,0.6c0.9,1.2,1.5,2.6,2,4c0.4,1.1,0.9,2.1,1.3,3.2
	c0.3,0.7,0.5,1.3,0.7,2c0.3,1.1,0.5,2.2,0.7,3.4c0.2,1.7,0.4,3.4,0.5,5.2c0.1,2.3,0.2,4.6,0.2,6.9c0,0.9,0,1.9-0.1,2.8
	c0,0.6-0.1,1.2-0.1,1.9c0,0.4,0,0.7,0.1,1.1c0,0.4,0.4,0.7,0.8,0.8c0.4,0,0.8-0.2,0.9-0.6c0.4-0.9,0.8-1.9,1.1-2.8
	c0.1-0.3,0.2-0.7,0.4-1c0.3-0.4,1-0.5,1.4-0.2c0.1,0.1,0.2,0.2,0.2,0.3c0.1,0.2,0.1,0.3,0.2,0.5c0.3,0.9,0.6,1.7,0.8,2.5
	c0.4,1.7,0.8,3.5,1,5.2c0.2,2,0.5,3.9,0.7,5.8c0.1,0.7,0,1.4-0.3,2.1c-0.2,0.5-0.7,0.7-1.2,0.5c0,0,0,0,0,0
	c-0.4-0.1-0.8-0.4-1.2-0.5c-0.3-0.1-0.7,0-0.9,0.4c0,0,0,0.1,0,0.2c-0.1,0.3-0.1,0.6,0,0.9c0.1,0.6,0.3,1.3,0.5,1.9
	c0.2,0.5,0.3,0.9,0.4,1.4c0.4,2.5,0.7,5,0.8,7.5c0,0.6,0.1,1.2,0.2,1.9c0.3,2.9,0.2,5.9-0.4,8.8c-0.9,4.2-3,8-6,11.1
	c-0.9,0.9-1.9,1.7-2.8,2.5c-0.4,0.4-0.9,0.8-1.3,1.1c-0.8,0.6-1.6,1.3-2.5,1.8c-1.9,1.3-3.9,2.4-6.1,3.3c-1.7,0.9-3.5,1.5-5.3,2
	c-0.3,0.1-0.6,0.2-0.9,0.3c-1.5,0.6-3.1,1.1-4.7,1.4c-1.9,0.5-2.3-0.9-2.1-2.1c0.1-0.4,0.2-0.8,0.4-1.1c0.4-0.7,0.6-1.5,0.6-2.3
	c0.1-1.5,0.8-3,2-3.9c1.3-1.1,2.6-2,3.9-3c0.2-0.2,0.5-0.2,0.7-0.4c0.4-0.2,0.8-0.5,1.2-0.8c0.6-0.6,1.3-1,2.1-1.3
	c0.3-0.1,0.6-0.2,0.8-0.4c1.1-0.8,2.3-1.4,3.5-1.9c0.7-0.4,1.4-0.8,2.1-1.2c0.2-0.2,0.3-0.4,0.4-0.6c0-0.4-0.3-0.6-0.6-0.6
	c-0.5-0.1-0.9-0.2-1.4-0.2C435.2,324.5,433.5,324.5,431.8,324.5L431.8,324.5z M337.8,235.4l2.4-0.3c1-0.1,2-0.4,2.9-1
	c0.2-0.2,0.5-0.3,0.7-0.4c1.6-0.5,3-1.2,4.4-2.2c0.9-0.6,1.9-1,2.8-1.6c1.9-1.1,3.9-2.2,5.8-3.2c3.1-1.7,6.3-3,9.4-4.7
	c0.2-0.1,0.3-0.1,0.5-0.2c0.6-0.3,1.1-0.5,1.7-0.8c1.9-1,4-1.5,5.9-2.4c0.2-0.1,0.3-0.1,0.5-0.1c1.1-0.2,2.1-0.6,3.1-1.3
	c1.8-1.1,3.6-2.2,5.4-3.4c1-0.7,2-1.3,3.1-1.8c0.4-0.2,0.8-0.4,1.1-0.7c0.7-0.4,1-1.3,0.6-2c0-0.1-0.1-0.1-0.1-0.2
	c-0.1-0.2-0.3-0.4-0.5-0.6c-1.2-1.3-2.5-2.4-4-3.3c-0.6-0.3-1.1-0.6-1.6-0.9c-1.2-0.7-2.5-1.2-3.8-1.5c-1.9-0.4-3.7-0.8-5.6-1.3
	c-1.4-0.3-2.4-1.5-2.5-2.9c-0.1-1-0.1-1.9,0-2.9c0.1-1.3,0.4-2.6,0.5-3.8c0.1-1.1,0.3-2.1,0.4-3.2c0-0.5,0.2-1,0.3-1.4
	c0.8-1.9,1.3-3.9,1.7-5.9c0.1-0.5,0.1-1,0-1.4c-0.1-0.7-0.6-1.1-1.3-1.1c-0.3,0-0.6,0-0.9,0.1c-0.3,0-0.5,0.1-0.8,0.1
	c-0.6,0-1.1-0.4-1.1-1c0-0.1,0-0.2,0-0.3c0.1-0.4,0.2-0.7,0.4-1c0.3-0.4,0.6-0.7,1-1.1c0.5-0.6,0.8-1.3,0.9-2.1
	c0.1-1.2-0.2-2.3-0.9-3.3c-0.8-1.1-1.9-2-3.2-2.5c-1-0.5-2.2-0.6-3.2-0.1c-0.4,0.2-0.7,0.3-1.1,0.4c-1,0.3-2,0.9-2.6,1.7
	c-0.3,0.3-0.6,0.6-1,0.9c-0.7,0.6-1.4,1.2-2,1.9c-1.3,1.5-2.8,2.7-4.6,3.6c-1.2,0.5-2.4,0.9-3.7,1c-0.8,0.1-1.6-0.2-2.3-0.6
	c-0.4-0.3-0.8-0.5-1.3-0.7c-0.5-0.2-1-0.6-1.4-1c-1.3-1.4-2.8-2.6-4.2-3.9c-0.4-0.4-0.9-0.8-1.3-1.2c-0.6-0.7-1.4-1.2-2.3-1.6
	c-0.4-0.1-0.8-0.3-1.2-0.5c-1.4-0.8-3.1-0.8-4.6-0.2c-0.6,0.2-1.2,0.5-1.8,0.8c-1.6,0.7-2.3,2.6-1.6,4.3c0.1,0.3,0.3,0.5,0.5,0.7
	c0.8,0.9,1.4,1.9,2.1,2.8s1.5,1.8,2.2,2.7c0.3,0.4,0.6,0.8,0.8,1.3c0.2,0.5,0,1-0.4,1.3c-0.5,0.4-1.1,0.4-1.6,0.1
	c-0.3-0.2-0.6-0.4-0.9-0.6c-1.5-1.1-2.8-2.5-3.9-4c-0.1-0.2-0.3-0.3-0.5-0.5c-0.2-0.2-0.4-0.3-0.6-0.5c-0.5-0.3-1.2-0.1-1.5,0.4
	c-0.1,0.1-0.1,0.3-0.1,0.5c-0.1,0.5-0.1,1.1,0,1.6c0.1,1.5,0.4,3,0.6,4.5c0.3,1.8,0.8,3.5,1.5,5.1c1.4,3.3,1.5,6.9,0.3,10.3
	c-0.3,0.8-0.5,1.6-0.8,2.4c-0.1,0.4-0.3,0.7-0.5,1.1c-0.6,0.8-1.2,1.7-1.8,2.5c-0.2,0.2-0.3,0.4-0.5,0.6c-1.7,1.4-3.4,2.8-5,4.1
	c-0.2,0.2-0.5,0.3-0.7,0.4c-0.3,0.2-0.5,0.4-0.8,0.7c-0.6,0.6-0.6,1.5,0,2.1c0.3,0.3,0.6,0.6,1,0.9c0.8,0.7,1.6,1.3,2.3,2
	c1.1,1,2.1,2.1,3.2,3.2c0.2,0.2,0.3,0.3,0.5,0.5c1,1.4,2.1,2.6,3,4c1.3,1.8,2.4,3.7,3.5,5.7c1.1,2.3,2.6,4.4,4.6,6
	c0.3,0.3,0.8,0.6,1.3,0.7C335.8,235.1,336.9,235.2,337.8,235.4L337.8,235.4z"/>
<path class="st1" d="M235.6,324.3c-1.1-0.1-2.8-0.1-4.4-0.3c-0.7-0.1-1.3-0.3-1.9-0.5c-0.7-0.2-1.3-0.5-2-0.6
	c-0.8-0.2-1.6-0.5-2.3-1c-0.6-0.4-1.2-0.8-1.8-1.2c-1.2-0.8-2.3-1.7-3.2-2.8c-0.7-1.6-1.7-3.1-1.7-5c0-0.8,0-1.7-0.1-2.5
	c-0.1-1-0.3-2.1-0.5-3.2c-0.2-1.2-0.5-2.4-0.8-3.6c-0.2-0.9-0.2-1.9,0.1-2.8c0.2-0.8,0.4-1.5,0.6-2.3c0.5-1.3,0.6-2.7,0.3-4.1
	c-0.3-2.2-0.5-4.3-0.3-6.5c0.2-2.7,0.4-5.4,0.7-8.1c0.1-0.7,0.3-1.3,0.6-1.9c0.2-0.3,0.3-0.7,0.4-1c0.2-1.1,0.7-2.1,1.5-2.9
	c1.1-1.4,2.3-2.7,3.4-4.1c1-1.3,2.1-2.5,3.3-3.7c0.3-0.3,0.6-0.7,0.8-1c0.3-0.4,0.7-0.8,1-1.2c1-1.2,2.1-2.2,3.2-3.4
	c0.6-0.6,1.3-1.3,1.9-1.9c0.2-0.1,0.4-0.3,0.6-0.4c0.5-0.2,1.1,0,1.3,0.5c0,0.1,0.1,0.2,0.1,0.3c0.1,0.3,0.1,0.6,0.1,0.9
	c0,0.7,0.1,1.4,0.4,2.1c0.4,1,0.7,2,0.8,3.1c0.1,0.8,0.3,1.7,0.7,2.4c0.2,0.4,0.4,0.8,0.5,1.3c0.4,1.3,0.9,2.5,1.6,3.7
	c0.1,0.2,0.2,0.4,0.3,0.6c0.3,0.9,0.7,1.8,1.3,2.6c1.4,2.4,3.5,4.1,5.4,6c0.2,0.2,0.5,0.4,0.8,0.5c0.6,0.3,1.1,0.6,1.6,1
	c1.4,1,2.9,1.7,4.6,2.1c1.7,0.6,3.4,1,5.2,1.2c0.6,0,1.1,0.3,1.6,0.6c1,0.6,1.3,1.8,0.7,2.7c0,0,0,0,0,0c-0.1,0.3-0.3,0.5-0.5,0.8
	c-1.2,1.3-1.9,2.9-3,4.3c-0.2,0.4-0.4,0.8-0.5,1.2c-0.2,0.9,0.3,1.3,1.1,1.1c0.4-0.1,0.7-0.3,1.1-0.5c1.5-1.1,3.1-2,4.8-2.9
	c0.3-0.2,0.6-0.4,0.9-0.6c0.6-0.5,1.2-1,1.8-1.4c0.3-0.3,0.6-0.5,1-0.7c0.8-0.5,1.4-0.1,1.5,0.8c0.1,0.8-0.1,1.6-0.4,2.4
	c-0.4,1.1-0.9,2.1-1.3,3.2c-0.7,1.9-1.8,3.7-3.2,5.2c-1.9,2.2-4.1,4.2-6.5,5.9c-1.3,1-2.8,1.7-4.2,2.5c-1.5,0.8-3.1,1.5-4.8,2
	c-0.3,0.1-0.6,0.2-0.9,0.4c-0.9,0.5-1.9,0.8-3,0.9c-0.5,0.1-1.1,0.2-1.5,0.4c-0.8,0.3-1.6,0.6-2.4,0.6c-0.4,0-0.7,0.1-1.1,0.2
	c-0.3,0.1-0.7,0.3-0.9,0.5c-0.4,0.2-0.5,0.7-0.2,1.1c0.1,0.1,0.2,0.2,0.3,0.3c0.7,0.4,1.4,0.8,2.2,1c1.5,0.3,2.7,1.1,4.1,1.5
	c0.3,0.1,0.6,0.3,0.9,0.6c0.4,0.4,0.4,1,0,1.4c-0.1,0.1-0.2,0.2-0.3,0.2c-0.4,0.3-0.9,0.4-1.4,0.5c-1.1,0.1-2.1,0.4-3,0.9
	c-0.6,0.3-1.3,0.5-2.1,0.5C238.9,324.1,237.5,324.1,235.6,324.3z"/>
<path class="st1" d="M347.8,139.4c-0.3,0-0.5,0-0.8,0c-3.4,0.1-6.8-0.1-10.1-0.7c-2.1-0.3-4.2-0.3-6.2-0.5c-1.1-0.1-2.2-0.2-3.3-0.4
	c-0.5-0.1-1-0.1-1.5-0.1c-0.5,0-1-0.1-1.4-0.3c-1.1-0.3-1.7-1.3-1.5-2.4c0-0.1,0.1-0.3,0.2-0.4c0.3-0.7,0.6-1.4,0.8-2.1
	c0.2-0.7,0.4-1.3,0.6-2c0.1-0.8,0.4-1.5,0.8-2.1c0.2-0.3,0.4-0.6,0.5-0.9c0.3-1.1,0.8-2.2,1.5-3.1c0.3-0.5,0.5-1,0.8-1.4
	c0.4-0.7,0.8-1.3,1.2-1.9c0.7-0.9,1.4-1.7,2.2-2.5c1-0.8,1.9-1.6,2.7-2.6c1.4-1,3-1.8,4.6-2.4c0.6-0.2,1.3-0.4,1.9-0.7
	c0.7-0.3,1.3-0.5,2.1-0.5c0.7,0,1.3-0.2,1.9-0.4c0.5-0.2,0.9-0.3,1.4-0.3c2.4-0.3,4.8-0.1,7.1,0.4c0.8,0.2,1.6,0.3,2.4,0.4
	c0.3,0,0.7,0.1,1,0.2c1.7,0.9,3.6,1.4,5.2,2.6c0.8,0.5,1.6,1.1,2.3,1.8c0.2,0.2,0.5,0.4,0.8,0.6c0.3,0.2,0.5,0.5,0.8,0.7
	c0.9,1.2,1.8,2.3,2.6,3.6c1.1,1.7,2.1,3.4,2.9,5.2c0.1,0.3,0.2,0.6,0.4,0.8c0.4,0.7,0.7,1.5,0.8,2.3c0.1,0.6,0.3,1.2,0.5,1.8
	c0.3,0.7,0.5,1.4,0.7,2.1c0.1,0.4,0.1,0.9,0.1,1.3c-0.1,1.1-0.9,1.9-2,2c-0.7,0.1-1.4,0.2-2.1,0.3c-2.1,0.3-4.1,0.5-6.2,0.6
	c-0.8,0-1.6,0-2.4,0.1c-2.2,0.3-4.3,0.5-6.5,0.8c-0.4,0-0.8,0-1.2,0L347.8,139.4L347.8,139.4z"/>
<path class="st1" d="M330.4,352.2c-0.1,1-0.1,2-0.2,3s-0.1,1.9-0.1,2.8c0,1.3,0.3,2.7,0.8,3.9c0.4,1,0.9,2,1.5,3
	c0.8,1.2,1,2.6,1.8,3.9c0.2,1.3,0.4,2.5,0.5,3.8c0,0.9,0,1.8,0,2.7c0,0.8,0.1,1.7,0.3,2.5c0.4,1.8,1.1,3.5,2.1,5.1
	c0.6,1.2,1.4,2.3,2.3,3.2c0.3,0.4,0.7,0.7,1,1.1c0.2,0.2,0.3,0.4,0.4,0.7c0.3,0.5,0.1,1.1-0.4,1.4c-0.2,0.1-0.4,0.1-0.6,0.1
	c-0.5,0-1-0.1-1.4-0.2c-1-0.3-2-0.4-3-0.4c-1.5-0.1-3-0.4-4.4-0.9c-0.4-0.2-0.8-0.3-1.3-0.4c-2.1-0.4-4.1-1.1-6-2
	c-0.8-0.4-1.6-0.8-2.4-1.3c-1.9-1-3.6-2.3-5.2-3.7c-0.7-0.7-1.4-1.5-1.9-2.4c-0.6-0.8-1-1.6-1.5-2.5c-0.3-0.4-0.5-1-0.6-1.5
	c-0.1-0.7-0.3-1.4-0.5-2.1c-0.4-1.3-0.4-2.7,0-4.1c0.2-0.5,0.3-0.9,0.4-1.4c0.2-1,0.4-2,0.9-2.9c0.7-1.5,0.8-3.1,0.5-4.7
	c-0.4-1.9-1-3.7-1.5-5.5c-0.2-0.8-0.7-1.5-1-2.2c-0.5-1.3-1-2.5-1.5-3.8c-0.4-1-0.5-2.1-0.3-3.1c0.5-2.5,1.1-5,1.9-7.5
	c0.1-0.4,0.3-0.7,0.5-1.1c0.4-0.6,0.6-1.2,0.7-1.9c0.3-2.2,0.3-4.4,0-6.6c-0.1-0.6-0.3-1.1-0.4-1.7c-0.1-0.3-0.1-0.5-0.2-0.8
	c0-0.3,0.2-0.6,0.5-0.6c0.1,0,0.1,0,0.2,0c0.4,0.1,0.7,0.3,1,0.5c0.6,0.6,1.2,1.2,1.8,1.8s0.9,1,1.3,1.5s0.7,0.8,1,1.2
	c0.2,0.2,0.4,0.5,0.6,0.7c1.1,1.2,2,2.5,2.9,3.8c0.3,0.5,0.6,0.9,0.9,1.3c0.5,0.5,0.8,1.1,1.1,1.8c0.1,0.2,0.3,0.5,0.4,0.7
	c0.7,0.8,1.3,1.7,1.8,2.6c0.1,0.2,0.2,0.3,0.3,0.4c1,1.2,2,2.4,2.8,3.7c1.6,2,2.3,4.6,2.2,7.1c0,0.2,0,0.4,0,0.7L330.4,352.2z
	 M326.9,368.6h0.1c0-0.4,0-0.8,0-1.2c0-0.3-0.1-0.7-0.2-1c-0.1-0.3-0.5-0.5-0.9-0.4c0,0-0.1,0-0.1,0.1c-0.4,0.2-0.6,0.5-0.7,0.9
	c-0.4,1.1-0.5,2.3-0.4,3.4c0,0.3,0.1,0.5,0.3,0.8c0.2,0.5,0.8,0.6,1.2,0.4c0.1-0.1,0.3-0.2,0.3-0.3c0.2-0.3,0.4-0.7,0.4-1.1
	C326.9,369.7,326.9,369.1,326.9,368.6L326.9,368.6z"/>
<path d="M337.8,235.4c-0.9-0.2-2-0.3-3.1-0.5c-0.5-0.1-0.9-0.4-1.3-0.7c-1.9-1.6-3.5-3.7-4.6-6c-1-2-2.2-3.8-3.5-5.7
	c-0.9-1.4-2.1-2.7-3-4c-0.1-0.2-0.3-0.3-0.5-0.5c-1.1-1.1-2.1-2.1-3.2-3.2c-0.7-0.7-1.5-1.3-2.3-2c-0.4-0.3-0.7-0.6-1-0.9
	c-0.6-0.6-0.6-1.5,0-2.1c0.2-0.3,0.5-0.5,0.8-0.7c0.2-0.2,0.5-0.3,0.7-0.4c1.7-1.4,3.4-2.7,5-4.1c0.2-0.2,0.4-0.4,0.5-0.6
	c0.6-0.8,1.2-1.7,1.8-2.5c0.2-0.3,0.4-0.7,0.5-1.1c0.3-0.8,0.5-1.6,0.8-2.4c1.2-3.3,1.1-7-0.3-10.3c-0.7-1.6-1.2-3.3-1.5-5.1
	c-0.2-1.5-0.5-3-0.6-4.5c-0.1-0.5-0.1-1.1,0-1.6c0-0.6,0.6-1,1.1-1c0.2,0,0.3,0.1,0.5,0.1c0.2,0.1,0.4,0.3,0.6,0.5
	c0.2,0.1,0.3,0.3,0.5,0.5c1.1,1.5,2.4,2.9,3.9,4c0.3,0.2,0.5,0.4,0.9,0.6c0.5,0.3,1.2,0.3,1.6-0.1c0.4-0.3,0.6-0.8,0.4-1.3
	c-0.2-0.4-0.5-0.9-0.8-1.3c-0.7-0.9-1.5-1.8-2.2-2.7s-1.3-1.9-2.1-2.8c-1.1-1.4-1-3.4,0.4-4.5c0.2-0.2,0.5-0.4,0.7-0.5
	c0.6-0.3,1.2-0.6,1.8-0.8c1.5-0.6,3.2-0.6,4.6,0.2c0.4,0.2,0.8,0.4,1.2,0.5c0.9,0.3,1.7,0.9,2.3,1.6c0.4,0.4,0.8,0.8,1.3,1.2
	c1.5,1.2,2.9,2.5,4.2,3.9c0.4,0.4,0.9,0.8,1.4,1c0.4,0.2,0.9,0.4,1.3,0.7c0.7,0.5,1.5,0.7,2.3,0.6c1.3-0.1,2.5-0.5,3.7-1
	c1.8-0.9,3.3-2.1,4.6-3.6c0.6-0.7,1.4-1.3,2-1.9c0.3-0.3,0.7-0.6,1-0.9c0.7-0.8,1.6-1.4,2.6-1.7c0.4-0.1,0.8-0.3,1.1-0.4
	c1-0.4,2.2-0.4,3.2,0.1c1.3,0.5,2.4,1.4,3.2,2.5c0.7,1,1,2.1,0.9,3.3c0,0.8-0.3,1.5-0.9,2.1c-0.3,0.4-0.7,0.7-1,1.1
	c-0.2,0.3-0.4,0.6-0.4,1c-0.1,0.6,0.3,1.1,0.9,1.2c0,0,0.1,0,0.1,0c0.3,0,0.5,0,0.8-0.1c0.3-0.1,0.6-0.1,0.9-0.1
	c0.7,0,1.2,0.4,1.3,1.1c0.1,0.5,0.1,1,0,1.4c-0.4,2-0.9,4-1.7,5.9c-0.2,0.5-0.3,0.9-0.3,1.4c-0.2,1.1-0.3,2.1-0.4,3.2
	c-0.2,1.3-0.4,2.6-0.5,3.8c-0.1,1-0.1,1.9,0,2.9c0,1.4,1.1,2.7,2.5,2.9c1.8,0.5,3.7,1,5.6,1.3c1.4,0.2,2.7,0.7,3.8,1.5
	c0.5,0.3,1.1,0.6,1.6,0.9c1.5,0.9,2.8,2,4,3.3c0.2,0.2,0.3,0.4,0.5,0.6c0.5,0.7,0.3,1.6-0.3,2.1c-0.1,0-0.1,0.1-0.2,0.1
	c-0.3,0.3-0.7,0.5-1.1,0.7c-1.1,0.5-2.1,1.1-3.1,1.8c-1.8,1.1-3.6,2.3-5.4,3.4c-0.9,0.6-2,1-3.1,1.3c-0.2,0-0.3,0.1-0.5,0.1
	c-1.9,0.9-4,1.4-5.9,2.4c-0.5,0.3-1.1,0.5-1.7,0.8c-0.2,0.1-0.3,0.1-0.5,0.2c-3,1.7-6.3,3.1-9.4,4.7c-2,1.1-3.9,2.1-5.8,3.2
	c-0.9,0.6-1.9,1-2.8,1.6c-1.4,0.9-2.8,1.7-4.4,2.2c-0.3,0.1-0.5,0.2-0.7,0.4c-0.9,0.6-1.8,0.9-2.9,1L337.8,235.4z M347.3,189
	c0.1,0.9,0.4,1.9,0.9,2.6c0.6,1.1,1.8,1.7,3,1.4c0.5,0,1-0.2,1.3-0.6c0.5-0.6,1-1.2,1.5-1.8c0.5-0.6,0.6-1.5,0.2-2.3
	c-0.7-1.4-1.1-2.9-1.3-4.4c-0.1-0.5-0.2-1.1-0.3-1.6c-0.2-0.7-0.6-1.4-1.2-1.9c-0.4-0.4-1.2-0.4-1.6,0c0,0,0,0,0,0.1
	c-0.2,0.2-0.3,0.4-0.4,0.7c-0.5,1-0.7,2-0.8,3.1c0,1.1-0.3,2.2-0.8,3.2C347.6,188,347.4,188.5,347.3,189z"/>
<path d="M326.9,368.6c0,0.5,0,1.1,0,1.6c-0.1,0.4-0.2,0.8-0.4,1.1c-0.3,0.4-0.9,0.5-1.3,0.2c-0.1-0.1-0.2-0.2-0.3-0.3
	c-0.1-0.2-0.2-0.5-0.3-0.8c-0.1-1.1,0-2.3,0.3-3.4c0.1-0.4,0.4-0.7,0.7-0.9c0.3-0.2,0.7-0.1,0.9,0.2c0,0,0,0.1,0.1,0.1
	c0.1,0.3,0.2,0.7,0.2,1C326.9,367.8,326.9,368.2,326.9,368.6L326.9,368.6z"/>
<path class="st1" d="M347.3,189c0.1-0.5,0.3-1,0.5-1.5c0.5-1,0.8-2.1,0.8-3.2c0.1-1.1,0.4-2.1,0.8-3.1c0.1-0.2,0.2-0.5,0.4-0.7
	c0.4-0.5,1.1-0.5,1.6-0.1c0,0,0,0,0.1,0c0.6,0.5,1,1.1,1.2,1.9c0.1,0.5,0.2,1.1,0.3,1.6c0.2,1.5,0.6,3,1.3,4.4
	c0.4,0.7,0.4,1.6-0.2,2.3c-0.5,0.6-1,1.2-1.5,1.8c-0.3,0.4-0.8,0.6-1.3,0.6c-1.2,0.2-2.4-0.4-3-1.4
	C347.7,190.9,347.4,189.9,347.3,189z"/>
<path class="st0" d="M256.9,273.4c0,0-12.5-16-14-26C242.9,247.4,238.2,268.9,256.9,273.4z"/>
<path class="st0" d="M255.4,263.1c0,0-19.8-18.3,1.5-44.5c0,0,18.3-21,40.3-9.5c0,0,18.3,8.8,13.8,33.5c0,0-11.6,21.3-31.6,28.5
	c0,0-11.2,3-14.2,2.3L255.4,263.1z"/>
<path class="st0" d="M301.4,261.9c0,0,7.3-3.8,12.3-14.5c0,0,3.8,10.5-9.3,17.5c0,0-0.5,0.5-3-1.3S301.4,261.9,301.4,261.9z"/>
<path class="st0" d="M363.7,365.2c0,0-41-26.8-43.8-49.8c0,0-6.5-36.3,23-46.8c0,0,25.5-10.3,47.8,16.5c0,0,21.5,22.8,8.5,57
	l-6.8,13.5c0,0,0.8-9.3-1.5-10.8c0,0-5,21.3-11.8,20.3C379.2,365.2,371.3,370.6,363.7,365.2z"/>
<path class="st0" d="M403.4,295.5c0,0,17.3,32-8.4,64.8c3.7,0.9,7.6,0,10.5-2.5c0,0,19.8-30,1.8-59.8L403.4,295.5z"/>
<path class="st0" d="M319.2,139.5c18.7,3.5,37.8,3.5,56.5,0.1c1.4-0.3,2.9,0.3,3.7,1.4c1.3,1.7,2,4.2-2.7,6c0,0-40.3,7.1-58.8-0.6
	c0,0-4.8-3.5-1.3-6.3C317.3,139.5,318.3,139.3,319.2,139.5z"/>
<polygon class="st0" points="221.3,468.9 221.3,326.6 344.6,404.9 470.6,324.6 470.6,466.9 431,527.9 431,418.9 385.6,448.6 
	385.3,495.6 346,584.6 306.6,496.9 306,449.9 261.3,420.9 261,529.3 "/>
<polygon class="st2" points="261.1,484 252.6,466.7 240.6,373.3 290.1,439.6 261.3,420.9 "/>
<polygon class="st2" points="431,481.8 439.7,464.5 451.7,371.2 402.3,437.7 431,418.9 "/>
<text transform="matrix(1 0 0 1 97.15 712.3)" class="st3 st4">VON</text>
<text transform="matrix(1 0 0 1 364.5 712.3)" class="st0 st3 st4">LEE</text>
<text transform="matrix(1 0 0 1 118.59 760.3)" class="st3 st5">MARTIAL ARTS </text>
<text transform="matrix(1 0 0 1 390.03 760.3)" class="st0 st3 st5">ACADEMY</text>
<rect x="118.7" y="726.6" width="445.2" height="5"/>
<rect x="118.7" y="769.1" width="445.2" height="5"/>
</svg>
